<svg xmlns="http://www.w3.org/2000/svg" width="512" height="512" viewBox="0 0 512 512">
  <!-- Background -->
  <rect width="512" height="512" rx="100" fill="#26ACB0"/>
  
  <!-- QR Code Icon -->
  <g transform="translate(128, 128) scale(1.6)">
    <!-- QR Code Grid -->
    <rect x="20" y="20" width="20" height="20" fill="white"/>
    <rect x="40" y="20" width="20" height="20" fill="white"/>
    <rect x="60" y="20" width="20" height="20" fill="white"/>
    <rect x="80" y="20" width="20" height="20" fill="white"/>
    <rect x="100" y="20" width="20" height="20" fill="white"/>
    <rect x="120" y="20" width="20" height="20" fill="white"/>
    <rect x="140" y="20" width="20" height="20" fill="white"/>
    
    <rect x="20" y="40" width="20" height="20" fill="white"/>
    <rect x="140" y="40" width="20" height="20" fill="white"/>
    
    <rect x="20" y="60" width="20" height="20" fill="white"/>
    <rect x="60" y="60" width="20" height="20" fill="white"/>
    <rect x="80" y="60" width="20" height="20" fill="white"/>
    <rect x="100" y="60" width="20" height="20" fill="white"/>
    <rect x="140" y="60" width="20" height="20" fill="white"/>
    
    <rect x="20" y="80" width="20" height="20" fill="white"/>
    <rect x="60" y="80" width="20" height="20" fill="white"/>
    <rect x="100" y="80" width="20" height="20" fill="white"/>
    <rect x="140" y="80" width="20" height="20" fill="white"/>
    
    <rect x="20" y="100" width="20" height="20" fill="white"/>
    <rect x="60" y="100" width="20" height="20" fill="white"/>
    <rect x="100" y="100" width="20" height="20" fill="white"/>
    <rect x="140" y="100" width="20" height="20" fill="white"/>
    
    <rect x="20" y="120" width="20" height="20" fill="white"/>
    <rect x="140" y="120" width="20" height="20" fill="white"/>
    
    <rect x="20" y="140" width="20" height="20" fill="white"/>
    <rect x="40" y="140" width="20" height="20" fill="white"/>
    <rect x="60" y="140" width="20" height="20" fill="white"/>
    <rect x="80" y="140" width="20" height="20" fill="white"/>
    <rect x="100" y="140" width="20" height="20" fill="white"/>
    <rect x="120" y="140" width="20" height="20" fill="white"/>
    <rect x="140" y="140" width="20" height="20" fill="white"/>
  </g>
  
  <!-- Document Icon -->
  <g transform="translate(256, 256)">
    <!-- Document Outline -->
    <rect x="-60" y="-80" width="120" height="160" rx="10" fill="white" stroke="#1a8085" stroke-width="8"/>
    
    <!-- Document Lines -->
    <line x1="-40" y1="-40" x2="40" y2="-40" stroke="#1a8085" stroke-width="6" stroke-linecap="round"/>
    <line x1="-40" y1="-10" x2="40" y2="-10" stroke="#1a8085" stroke-width="6" stroke-linecap="round"/>
    <line x1="-40" y1="20" x2="40" y2="20" stroke="#1a8085" stroke-width="6" stroke-linecap="round"/>
    <line x1="-40" y1="50" x2="20" y2="50" stroke="#1a8085" stroke-width="6" stroke-linecap="round"/>
  </g>
</svg>